FILE "G Vector (Japan) - [Extra Cheat Codes v2025-03-19.01 by bbalyes] (Track 01).bin" BINARY
  TRACK 01 MODE1/2352
    INDEX 01 00:00:00
FILE "G Vector (Japan) - [Extra Cheat Codes v2025-03-19.01 by bbalyes] (Track 02).bin" BINARY
  TRACK 02 AUDIO
    INDEX 00 00:00:00
    INDEX 01 00:02:00
FILE "G Vector (Japan) - [Extra Cheat Codes v2025-03-19.01 by bbalyes] (Track 03).bin" BINARY
  TRACK 03 AUDIO
    INDEX 00 00:00:00
    INDEX 01 00:02:00
FILE "G Vector (Japan) - [Extra Cheat Codes v2025-03-19.01 by bbalyes] (Track 04).bin" BINARY
  TRACK 04 AUDIO
    INDEX 00 00:00:00
    INDEX 01 00:02:00
FILE "G Vector (Japan) - [Extra Cheat Codes v2025-03-19.01 by bbalyes] (Track 05).bin" BINARY
  TRACK 05 AUDIO
    INDEX 00 00:00:00
    INDEX 01 00:02:00
FILE "G Vector (Japan) - [Extra Cheat Codes v2025-03-19.01 by bbalyes] (Track 06).bin" BINARY
  TRACK 06 AUDIO
    INDEX 00 00:00:00
    INDEX 01 00:02:00
FILE "G Vector (Japan) - [Extra Cheat Codes v2025-03-19.01 by bbalyes] (Track 07).bin" BINARY
  TRACK 07 AUDIO
    INDEX 00 00:00:00
    INDEX 01 00:02:00
FILE "G Vector (Japan) - [Extra Cheat Codes v2025-03-19.01 by bbalyes] (Track 08).bin" BINARY
  TRACK 08 AUDIO
    INDEX 00 00:00:00
    INDEX 01 00:02:00
FILE "G Vector (Japan) - [Extra Cheat Codes v2025-03-19.01 by bbalyes] (Track 09).bin" BINARY
  TRACK 09 AUDIO
    INDEX 00 00:00:00
    INDEX 01 00:02:00
FILE "G Vector (Japan) - [Extra Cheat Codes v2025-03-19.01 by bbalyes] (Track 10).bin" BINARY
  TRACK 10 AUDIO
    INDEX 00 00:00:00
    INDEX 01 00:02:00
FILE "G Vector (Japan) - [Extra Cheat Codes v2025-03-19.01 by bbalyes] (Track 11).bin" BINARY
  TRACK 11 AUDIO
    INDEX 00 00:00:00
    INDEX 01 00:02:00
FILE "G Vector (Japan) - [Extra Cheat Codes v2025-03-19.01 by bbalyes] (Track 12).bin" BINARY
  TRACK 12 AUDIO
    INDEX 00 00:00:00
    INDEX 01 00:02:00
FILE "G Vector (Japan) - [Extra Cheat Codes v2025-03-19.01 by bbalyes] (Track 13).bin" BINARY
  TRACK 13 AUDIO
    INDEX 00 00:00:00
    INDEX 01 00:02:00
FILE "G Vector (Japan) - [Extra Cheat Codes v2025-03-19.01 by bbalyes] (Track 14).bin" BINARY
  TRACK 14 AUDIO
    INDEX 00 00:00:00
    INDEX 01 00:02:00
FILE "G Vector (Japan) - [Extra Cheat Codes v2025-03-19.01 by bbalyes] (Track 15).bin" BINARY
  TRACK 15 AUDIO
    INDEX 00 00:00:00
    INDEX 01 00:02:00
FILE "G Vector (Japan) - [Extra Cheat Codes v2025-03-19.01 by bbalyes] (Track 16).bin" BINARY
  TRACK 16 AUDIO
    INDEX 00 00:00:00
    INDEX 01 00:02:00
